<svg width="240" height="240" viewBox="0 0 240 240" fill="none" xmlns="http://www.w3.org/2000/svg">
<g clip-path="url(#clip0_12355_87476)">
<rect width="20" height="10" transform="matrix(-1 0 0 1 80 10)" fill="black"/>
<rect x="160" y="10" width="20" height="10" fill="black"/>
<rect x="80" y="230" width="20" height="10" transform="rotate(180 80 230)" fill="black"/>
<rect width="20" height="10" transform="matrix(1 0 0 -1 160 230)" fill="black"/>
<rect width="9.99996" height="9.99996" transform="matrix(-1 0 0 1 60 20)" fill="black"/>
<rect x="180" y="20" width="9.99996" height="9.99996" fill="black"/>
<rect width="80" height="10" transform="matrix(-1 0 0 1 160 0)" fill="black"/>
<rect width="80" height="10" transform="matrix(-1 0 0 1 160 10)" fill="#CACAC9"/>
<rect x="160" y="230" width="80" height="10" transform="rotate(180 160 230)" fill="#9D9D9D"/>
<rect width="120" height="10" transform="matrix(-1 0 0 1 180 20)" fill="#CACAC9"/>
<rect x="180" y="220" width="120" height="10" transform="rotate(180 180 220)" fill="#CACAC9"/>
<rect width="140" height="10" transform="matrix(-1 0 0 1 190 30)" fill="#CACAC9"/>
<rect x="190" y="210" width="140" height="10" transform="rotate(180 190 210)" fill="#CACAC9"/>
<rect width="160" height="10" transform="matrix(-1 0 0 1 200 40)" fill="#CACAC9"/>
<rect x="200" y="200" width="160" height="10" transform="rotate(180 200 200)" fill="#CACAC9"/>
<rect width="180" height="10" transform="matrix(-1 0 0 1 210 50)" fill="#CACAC9"/>
<rect width="10" height="10" transform="matrix(-1 0 0 1 40 50)" fill="#9D9D9D"/>
<rect x="210" y="190" width="180" height="10" transform="rotate(180 210 190)" fill="#CACAC9"/>
<rect width="200" height="10" transform="matrix(-1 0 0 1 220 60)" fill="#CACAC9"/>
<rect x="220" y="180" width="200" height="10" transform="rotate(180 220 180)" fill="#CACAC9"/>
<rect width="200" height="10" transform="matrix(-1 0 0 1 220 70)" fill="#CACAC9"/>
<rect x="220" y="170" width="200" height="10" transform="rotate(180 220 170)" fill="#CACAC9"/>
<rect x="230" y="160" width="220" height="10" transform="rotate(180 230 160)" fill="#CACAC9"/>
<rect x="230" y="150" width="220" height="10" transform="rotate(180 230 150)" fill="#CACAC9"/>
<rect x="230" y="140" width="220" height="10" transform="rotate(180 230 140)" fill="#CACAC9"/>
<rect x="230" y="130" width="220" height="10" transform="rotate(180 230 130)" fill="#CACAC9"/>
<rect x="230" y="120" width="220" height="10" transform="rotate(180 230 120)" fill="#CACAC9"/>
<rect x="230" y="110" width="220" height="10" transform="rotate(180 230 110)" fill="#CACAC9"/>
<rect x="230" y="100" width="220" height="10" transform="rotate(180 230 100)" fill="#CACAC9"/>
<rect x="230" y="90" width="220" height="10" transform="rotate(180 230 90)" fill="#CACAC9"/>
<rect width="80" height="10" transform="matrix(-1 0 0 1 160 230)" fill="black"/>
<rect x="60" y="220" width="9.99996" height="9.99996" transform="rotate(180 60 220)" fill="black"/>
<rect width="9.99996" height="9.99996" transform="matrix(1 0 0 -1 180 220)" fill="black"/>
<rect width="9.99996" height="9.99996" transform="matrix(-1 0 0 1 50 30)" fill="black"/>
<rect x="190" y="30" width="9.99996" height="9.99996" fill="black"/>
<rect x="50" y="210" width="9.99996" height="9.99996" transform="rotate(180 50 210)" fill="black"/>
<rect width="9.99996" height="9.99996" transform="matrix(1 0 0 -1 190 210)" fill="black"/>
<rect width="9.99996" height="9.99996" transform="matrix(-1 0 0 1 40 40)" fill="black"/>
<rect x="200" y="40" width="9.99996" height="9.99996" fill="black"/>
<rect x="40" y="200" width="9.99996" height="9.99996" transform="rotate(180 40 200)" fill="black"/>
<rect width="9.99996" height="9.99996" transform="matrix(1 0 0 -1 200 200)" fill="black"/>
<rect width="9.99996" height="9.99996" transform="matrix(-1 0 0 1 30 50)" fill="black"/>
<rect x="210" y="50" width="9.99996" height="9.99996" fill="black"/>
<rect x="30" y="190" width="9.99996" height="9.99996" transform="rotate(180 30 190)" fill="black"/>
<rect width="9.99996" height="9.99996" transform="matrix(1 0 0 -1 210 190)" fill="black"/>
<rect width="10" height="80" transform="matrix(-1 0 0 1 10 80)" fill="black"/>
<rect x="230" y="80" width="10" height="80" fill="black"/>
<rect width="10" height="20" transform="matrix(-1 0 0 1 20 60)" fill="black"/>
<rect x="220" y="60" width="10" height="20" fill="black"/>
<rect x="20" y="180" width="10" height="20" transform="rotate(180 20 180)" fill="black"/>
<rect width="10" height="20" transform="matrix(1 0 0 -1 220 180)" fill="black"/>
<rect width="60" height="10" transform="matrix(-1 0 0 1 150 30)" fill="#E8E8E8"/>
<rect width="60" height="10" transform="matrix(-1 0 0 1 150 40)" fill="#B7B7B7"/>
<rect width="100" height="10" transform="matrix(-1 0 0 1 170 50)" fill="#B7B7B7"/>
<rect width="120" height="10" transform="matrix(-1 0 0 1 180 60)" fill="#B7B7B7"/>
<rect width="130" height="10" transform="matrix(-1 0 0 1 190 70)" fill="#B7B7B7"/>
<rect width="120" height="10" transform="matrix(-1 0 0 1 190 80)" fill="#B7B7B7"/>
<rect width="110" height="10" transform="matrix(-1 0 0 1 200 90)" fill="#B7B7B7"/>
<rect width="110" height="10" transform="matrix(-1 0 0 1 200 100)" fill="#B7B7B7"/>
<rect width="110" height="10" transform="matrix(-1 0 0 1 200 110)" fill="#B7B7B7"/>
<rect width="110" height="10" transform="matrix(-1 0 0 1 200 120)" fill="#B7B7B7"/>
<rect width="110" height="10" transform="matrix(-1 0 0 1 200 130)" fill="#B7B7B7"/>
<rect width="110" height="10" transform="matrix(-1 0 0 1 200 140)" fill="#B7B7B7"/>
<rect width="100" height="10" transform="matrix(-1 0 0 1 190 150)" fill="#B7B7B7"/>
<rect width="40" height="10" transform="matrix(-1 0 0 1 190 160)" fill="#B7B7B7"/>
<rect width="20" height="10" transform="matrix(-1 0 0 1 180 170)" fill="#B7B7B7"/>
<rect x="50" y="70" width="10" height="10" fill="#AAA8A7"/>
<rect x="50" y="80" width="20" height="10" fill="#AAA8A7"/>
<rect x="40" y="90" width="50" height="10" fill="#AAA8A7"/>
<rect x="40" y="100" width="50" height="10" fill="#AAA8A7"/>
<rect x="40" y="110" width="50" height="10" fill="#AAA8A7"/>
<rect x="40" y="120" width="50" height="10" fill="#AAA8A7"/>
<rect x="40" y="130" width="50" height="10" fill="#AAA8A7"/>
<rect x="40" y="140" width="50" height="10" fill="#AAA8A7"/>
<rect x="50" y="150" width="40" height="10" fill="#AAA8A7"/>
<rect x="50" y="160" width="100" height="10" fill="#AAA8A7"/>
<rect x="60" y="170" width="100" height="10" fill="#AAA8A7"/>
<rect x="70" y="180" width="100" height="10" fill="#AAA8A7"/>
<rect x="90" y="190" width="60" height="10" fill="#AAA8A7"/>
<rect x="150" y="210" width="60" height="10" transform="rotate(180 150 210)" fill="#E8E8E8"/>
<rect width="20" height="10" transform="matrix(-1 0 0 1 90 40)" fill="#E8E8E8"/>
<rect x="90" y="200" width="20" height="10" transform="rotate(180 90 200)" fill="#E8E8E8"/>
<rect x="150" y="40" width="20" height="10" fill="#E8E8E8"/>
<rect width="20" height="10" transform="matrix(1 0 0 -1 150 200)" fill="#E8E8E8"/>
<rect width="10" height="10" transform="matrix(-1 0 0 1 70 50)" fill="#E8E8E8"/>
<rect x="70" y="190" width="10" height="10" transform="rotate(180 70 190)" fill="#E8E8E8"/>
<rect x="170" y="50" width="10" height="10" fill="#E8E8E8"/>
<rect width="10" height="10" transform="matrix(1 0 0 -1 170 190)" fill="#E8E8E8"/>
<rect width="10" height="10" transform="matrix(-1 0 0 1 60 60)" fill="#E8E8E8"/>
<rect x="60" y="180" width="10" height="10" transform="rotate(180 60 180)" fill="#E8E8E8"/>
<rect x="180" y="60" width="10" height="10" fill="#E8E8E8"/>
<rect width="10" height="10" transform="matrix(1 0 0 -1 180 180)" fill="#E8E8E8"/>
<rect width="10" height="20" transform="matrix(-1 0 0 1 50 70)" fill="#E8E8E8"/>
<rect x="50" y="170" width="10" height="20" transform="rotate(180 50 170)" fill="#E8E8E8"/>
<rect x="190" y="70" width="10" height="20" fill="#E8E8E8"/>
<rect width="10" height="20" transform="matrix(1 0 0 -1 190 170)" fill="#E8E8E8"/>
<rect width="10" height="60" transform="matrix(-1 0 0 1 40 90)" fill="#E8E8E8"/>
<rect width="10" height="60" transform="matrix(-1 0 0 1 210 90)" fill="#E8E8E8"/>
<rect width="30" height="10" transform="matrix(-1 0 0 1 50 60)" fill="#9D9D9D"/>
<rect width="20" height="10" transform="matrix(-1 0 0 1 40 70)" fill="#9D9D9D"/>
<rect width="30" height="10" transform="matrix(-1 0 0 1 40 80)" fill="#9D9D9D"/>
<rect width="20" height="10" transform="matrix(-1 0 0 1 30 90)" fill="#9D9D9D"/>
<rect width="20" height="10" transform="matrix(-1 0 0 1 30 100)" fill="#9D9D9D"/>
<rect width="20" height="10" transform="matrix(-1 0 0 1 30 110)" fill="#9D9D9D"/>
<rect width="20" height="10" transform="matrix(-1 0 0 1 30 120)" fill="#9D9D9D"/>
<rect width="20" height="10" transform="matrix(-1 0 0 1 30 130)" fill="#9D9D9D"/>
<rect width="20" height="10" transform="matrix(-1 0 0 1 30 140)" fill="#9D9D9D"/>
<rect width="30" height="10" transform="matrix(-1 0 0 1 40 150)" fill="#9D9D9D"/>
<rect width="20" height="10" transform="matrix(-1 0 0 1 40 160)" fill="#9D9D9D"/>
<rect width="30" height="10" transform="matrix(-1 0 0 1 50 170)" fill="#9D9D9D"/>
<rect width="30" height="10" transform="matrix(-1 0 0 1 60 180)" fill="#9D9D9D"/>
<rect width="30" height="10" transform="matrix(-1 0 0 1 70 190)" fill="#9D9D9D"/>
<rect width="40" height="10" transform="matrix(-1 0 0 1 90 200)" fill="#9D9D9D"/>
<rect width="40" height="10" transform="matrix(-1 0 0 1 190 200)" fill="#9D9D9D"/>
<rect width="10" height="10" transform="matrix(-1 0 0 1 180 190)" fill="#9D9D9D"/>
<rect width="120" height="10" transform="matrix(-1 0 0 1 180 210)" fill="#9D9D9D"/>
<path d="M75.3231 93H90.6463V100.714H75.3231V93ZM75.3231 108.429H67.6616V100.714H75.3231V108.429ZM98.3078 100.714V108.429H90.6463V100.714H98.3078ZM60 108.429H67.6616V139.286H60V108.429ZM90.6463 131.571H98.3078V139.286H90.6463V131.571ZM67.6616 147V139.286H90.6463V147H67.6616Z" fill="#6E6E6E"/>
<path d="M136.586 93V100.714H113.601V116.143H128.924V123.857H113.601V147H105.939V93H136.586Z" fill="#6E6E6E"/>
<path d="M174.894 100.714H151.909V93H174.894V100.714ZM144.247 108.429V100.714H151.909V108.429H144.247ZM159.57 108.429V116.143H151.909V108.429H159.57ZM167.232 116.143V123.857H159.57V116.143H167.232ZM174.894 139.286H167.232V123.857H174.894V139.286ZM144.247 139.286V131.571H151.909V139.286H144.247ZM151.909 147V139.286H167.232V147H151.909Z" fill="#6E6E6E"/>
<path d="M79.9188 93H95.242V100.714H79.9188V93ZM79.9188 108.429H72.2573V100.714H79.9188V108.429ZM102.904 100.714V108.429H95.242V100.714H102.904ZM64.5957 108.429H72.2573V139.286H64.5957V108.429ZM95.242 131.571H102.904V139.286H95.242V131.571ZM72.2573 147V139.286H95.242V147H72.2573Z" fill="#EAEAEA"/>
<path d="M141.181 93V100.714H118.197V116.143H133.52V123.857H118.197V147H110.535V93H141.181Z" fill="#EAEAEA"/>
<path d="M179.489 100.714H156.505V93H179.489V100.714ZM148.843 108.429V100.714H156.505V108.429H148.843ZM164.166 108.429V116.143H156.505V108.429H164.166ZM171.828 116.143V123.857H164.166V116.143H171.828ZM179.489 139.286H171.828V123.857H179.489V139.286ZM148.843 139.286V131.571H156.505V139.286H148.843ZM156.505 147V139.286H171.828V147H156.505Z" fill="#EAEAEA"/>
</g>
<defs>
<clipPath id="clip0_12355_87476">
<rect width="240" height="240" fill="white"/>
</clipPath>
</defs>
</svg>
