<svg width="48" height="48" viewBox="0 0 48 48" fill="none" xmlns="http://www.w3.org/2000/svg">
<g clip-path="url(#clip0_12361_59889)">
<rect width="4" height="2" transform="matrix(-1 0 0 1 16 2)" fill="black"/>
<rect x="32" y="2" width="4" height="2" fill="black"/>
<rect x="16" y="46" width="4" height="2" transform="rotate(180 16 46)" fill="black"/>
<rect width="4" height="2" transform="matrix(1 0 0 -1 32 46)" fill="black"/>
<rect width="1.99999" height="1.99999" transform="matrix(-1 0 0 1 12 4)" fill="black"/>
<rect x="36" y="4" width="1.99999" height="1.99999" fill="black"/>
<rect width="16" height="2" transform="matrix(-1 0 0 1 32 0)" fill="black"/>
<rect width="16" height="2" transform="matrix(-1 0 0 1 32 2)" fill="#CACAC9"/>
<rect x="32" y="46" width="16" height="2" transform="rotate(180 32 46)" fill="#9D9D9D"/>
<rect width="24" height="2" transform="matrix(-1 0 0 1 36 4)" fill="#CACAC9"/>
<rect x="36" y="44" width="24" height="2" transform="rotate(180 36 44)" fill="#CACAC9"/>
<rect width="28" height="2" transform="matrix(-1 0 0 1 38 6)" fill="#CACAC9"/>
<rect x="38" y="42" width="28" height="2" transform="rotate(180 38 42)" fill="#CACAC9"/>
<rect width="32" height="2" transform="matrix(-1 0 0 1 40 8)" fill="#CACAC9"/>
<rect x="40" y="40" width="32" height="2" transform="rotate(180 40 40)" fill="#CACAC9"/>
<rect width="36" height="2" transform="matrix(-1 0 0 1 42 10)" fill="#CACAC9"/>
<rect width="2" height="2" transform="matrix(-1 0 0 1 8 10)" fill="#9D9D9D"/>
<rect x="42" y="38" width="36" height="2" transform="rotate(180 42 38)" fill="#CACAC9"/>
<rect width="40" height="2" transform="matrix(-1 0 0 1 44 12)" fill="#CACAC9"/>
<rect x="44" y="36" width="40" height="2" transform="rotate(180 44 36)" fill="#CACAC9"/>
<rect width="40" height="2" transform="matrix(-1 0 0 1 44 14)" fill="#CACAC9"/>
<rect x="44" y="34" width="40" height="2" transform="rotate(180 44 34)" fill="#CACAC9"/>
<rect x="46" y="32" width="44" height="2" transform="rotate(180 46 32)" fill="#CACAC9"/>
<rect x="46" y="30" width="44" height="2" transform="rotate(180 46 30)" fill="#CACAC9"/>
<rect x="46" y="28" width="44" height="2" transform="rotate(180 46 28)" fill="#CACAC9"/>
<rect x="46" y="26" width="44" height="2" transform="rotate(180 46 26)" fill="#CACAC9"/>
<rect x="46" y="24" width="44" height="2" transform="rotate(180 46 24)" fill="#CACAC9"/>
<rect x="46" y="22" width="44" height="2" transform="rotate(180 46 22)" fill="#CACAC9"/>
<rect x="46" y="20" width="44" height="2" transform="rotate(180 46 20)" fill="#CACAC9"/>
<rect x="46" y="18" width="44" height="2" transform="rotate(180 46 18)" fill="#CACAC9"/>
<rect width="16" height="2" transform="matrix(-1 0 0 1 32 46)" fill="black"/>
<rect x="12" y="44" width="1.99999" height="1.99999" transform="rotate(180 12 44)" fill="black"/>
<rect width="1.99999" height="1.99999" transform="matrix(1 0 0 -1 36 44)" fill="black"/>
<rect width="1.99999" height="1.99999" transform="matrix(-1 0 0 1 10 6)" fill="black"/>
<rect x="38" y="6" width="1.99999" height="1.99999" fill="black"/>
<rect x="10" y="42" width="1.99999" height="1.99999" transform="rotate(180 10 42)" fill="black"/>
<rect width="1.99999" height="1.99999" transform="matrix(1 0 0 -1 38 42)" fill="black"/>
<rect width="1.99999" height="1.99999" transform="matrix(-1 0 0 1 8 8)" fill="black"/>
<rect x="40" y="8" width="1.99999" height="1.99999" fill="black"/>
<rect x="8" y="40" width="1.99999" height="1.99999" transform="rotate(180 8 40)" fill="black"/>
<rect width="1.99999" height="1.99999" transform="matrix(1 0 0 -1 40 40)" fill="black"/>
<rect width="1.99999" height="1.99999" transform="matrix(-1 0 0 1 6 10)" fill="black"/>
<rect x="42" y="10" width="1.99999" height="1.99999" fill="black"/>
<rect x="6" y="38" width="1.99999" height="1.99999" transform="rotate(180 6 38)" fill="black"/>
<rect width="1.99999" height="1.99999" transform="matrix(1 0 0 -1 42 38)" fill="black"/>
<rect width="2" height="16" transform="matrix(-1 0 0 1 2 16)" fill="black"/>
<rect x="46" y="16" width="2" height="16" fill="black"/>
<rect width="2" height="4" transform="matrix(-1 0 0 1 4 12)" fill="black"/>
<rect x="44" y="12" width="2" height="4" fill="black"/>
<rect x="4" y="36" width="2" height="4" transform="rotate(180 4 36)" fill="black"/>
<rect width="2" height="4" transform="matrix(1 0 0 -1 44 36)" fill="black"/>
<rect width="12" height="2" transform="matrix(-1 0 0 1 30 6)" fill="#E8E8E8"/>
<rect width="12" height="2" transform="matrix(-1 0 0 1 30 8)" fill="#B7B7B7"/>
<rect width="20" height="2" transform="matrix(-1 0 0 1 34 10)" fill="#B7B7B7"/>
<rect width="24" height="2" transform="matrix(-1 0 0 1 36 12)" fill="#B7B7B7"/>
<rect width="26" height="2" transform="matrix(-1 0 0 1 38 14)" fill="#B7B7B7"/>
<rect width="24" height="2" transform="matrix(-1 0 0 1 38 16)" fill="#B7B7B7"/>
<rect width="22" height="2" transform="matrix(-1 0 0 1 40 18)" fill="#B7B7B7"/>
<rect width="22" height="2" transform="matrix(-1 0 0 1 40 20)" fill="#B7B7B7"/>
<rect width="22" height="2" transform="matrix(-1 0 0 1 40 22)" fill="#B7B7B7"/>
<rect width="22" height="2" transform="matrix(-1 0 0 1 40 24)" fill="#B7B7B7"/>
<rect width="22" height="2" transform="matrix(-1 0 0 1 40 26)" fill="#B7B7B7"/>
<rect width="22" height="2" transform="matrix(-1 0 0 1 40 28)" fill="#B7B7B7"/>
<rect width="20" height="2" transform="matrix(-1 0 0 1 38 30)" fill="#B7B7B7"/>
<rect width="8" height="2" transform="matrix(-1 0 0 1 38 32)" fill="#B7B7B7"/>
<rect width="4" height="2" transform="matrix(-1 0 0 1 36 34)" fill="#B7B7B7"/>
<rect x="10" y="14" width="2" height="2" fill="#AAA8A7"/>
<rect x="10" y="16" width="4" height="2" fill="#AAA8A7"/>
<rect x="8" y="18" width="10" height="2" fill="#AAA8A7"/>
<rect x="8" y="20" width="10" height="2" fill="#AAA8A7"/>
<rect x="8" y="22" width="10" height="2" fill="#AAA8A7"/>
<rect x="8" y="24" width="10" height="2" fill="#AAA8A7"/>
<rect x="8" y="26" width="10" height="2" fill="#AAA8A7"/>
<rect x="8" y="28" width="10" height="2" fill="#AAA8A7"/>
<rect x="10" y="30" width="8" height="2" fill="#AAA8A7"/>
<rect x="10" y="32" width="20" height="2" fill="#AAA8A7"/>
<rect x="12" y="34" width="20" height="2" fill="#AAA8A7"/>
<rect x="14" y="36" width="20" height="2" fill="#AAA8A7"/>
<rect x="18" y="38" width="12" height="2" fill="#AAA8A7"/>
<rect x="30" y="42" width="12" height="2" transform="rotate(180 30 42)" fill="#E8E8E8"/>
<rect width="4" height="2" transform="matrix(-1 0 0 1 18 8)" fill="#E8E8E8"/>
<rect x="18" y="40" width="4" height="2" transform="rotate(180 18 40)" fill="#E8E8E8"/>
<rect x="30" y="8" width="4" height="2" fill="#E8E8E8"/>
<rect width="4" height="2" transform="matrix(1 0 0 -1 30 40)" fill="#E8E8E8"/>
<rect width="2" height="2" transform="matrix(-1 0 0 1 14 10)" fill="#E8E8E8"/>
<rect x="14" y="38" width="2" height="2" transform="rotate(180 14 38)" fill="#E8E8E8"/>
<rect x="34" y="10" width="2" height="2" fill="#E8E8E8"/>
<rect width="2" height="2" transform="matrix(1 0 0 -1 34 38)" fill="#E8E8E8"/>
<rect width="2" height="2" transform="matrix(-1 0 0 1 12 12)" fill="#E8E8E8"/>
<rect x="12" y="36" width="2" height="2" transform="rotate(180 12 36)" fill="#E8E8E8"/>
<rect x="36" y="12" width="2" height="2" fill="#E8E8E8"/>
<rect width="2" height="2" transform="matrix(1 0 0 -1 36 36)" fill="#E8E8E8"/>
<rect width="2" height="4" transform="matrix(-1 0 0 1 10 14)" fill="#E8E8E8"/>
<rect x="10" y="34" width="2" height="4" transform="rotate(180 10 34)" fill="#E8E8E8"/>
<rect x="38" y="14" width="2" height="4" fill="#E8E8E8"/>
<rect width="2" height="4" transform="matrix(1 0 0 -1 38 34)" fill="#E8E8E8"/>
<rect width="2" height="12" transform="matrix(-1 0 0 1 8 18)" fill="#E8E8E8"/>
<rect width="2" height="12" transform="matrix(-1 0 0 1 42 18)" fill="#E8E8E8"/>
<path d="M21.291 33.1953H22.1748V32.3115H23.0586V33.1953H23.9473V31.4219H21.291V33.1953ZM17.7461 15.4775H16.8623V16.3672H15.9727V17.25H15.0889V18.1396H14.2002V33.1943H20.4023V30.5381H31.916V33.1943H32.7998V29.6484H31.916V28.7646H31.0332V29.6484H19.5186V28.7646H18.6289V27.8818H17.7461V19.0234H18.6289V18.1396H29.2598V19.0234H30.1436V18.1396H31.0332V14.5938H17.7461V15.4775ZM29.2598 27.8818H30.1436V28.7637H31.0332V27.8799H30.1436V26.9922H29.2598V27.8818ZM27.4873 28.7637H28.377V27.8799H27.4873V28.7637ZM25.7148 28.7637H26.6035V27.8799H25.7148V28.7637ZM20.4023 28.7637H23.0586V27.8799H20.4023V28.7637ZM18.6289 26.9932H27.4873V19.9082H18.6289V26.9932ZM28.376 26.9912H29.2598V19.0225H28.376V26.9912ZM26.6035 26.1104H19.5186V20.7979H26.6035V26.1104ZM21.291 25.2256H24.8311V24.3359H21.291V25.2256ZM24.8311 24.3359H25.7148V23.4521H24.8311V24.3359ZM20.4023 24.3359H21.291V23.4521H20.4023V24.3359ZM15.9727 23.4521H15.0889V19.0234H15.9727V23.4521ZM23.9473 22.5635H24.8311V21.6797H23.9473V22.5635ZM21.291 22.5635H22.1748V21.6797H21.291V22.5635ZM16.8623 19.0234H15.9727V18.1396H16.8623V19.0234ZM17.7461 18.1396H16.8623V17.25H17.7461V18.1396ZM30.1436 17.25H29.2598V15.4775H30.1436V17.25ZM28.377 17.25H27.4873V15.4775H28.377V17.25ZM26.6035 17.25H19.5186V15.4775H26.6035V17.25ZM18.6289 17.25H17.7461V16.3672H18.6289V17.25Z" fill="#6E6E6E"/>
<path d="M22.0918 33.4062H22.9756V32.5225H23.8594V33.4062H24.748V31.6328H22.0918V33.4062ZM18.5469 15.6885H17.6631V16.5781H16.7734V17.4609H15.8906V18.3506H15.001V33.4053H21.2031V30.749H32.7178V33.4053H33.6006V29.8594H32.7178V28.9756H31.834V29.8594H20.3193V28.9756H19.4297V28.0918H18.5469V19.2344H19.4297V18.3506H30.0615V19.2344H30.9443V18.3506H31.834V14.8047H18.5469V15.6885ZM30.0615 28.0928H30.9443V28.9746H31.834V28.0908H30.9443V27.2031H30.0615V28.0928ZM28.2881 28.9746H29.1777V28.0908H28.2881V28.9746ZM26.5156 28.9746H27.4043V28.0908H26.5156V28.9746ZM21.2031 28.9746H23.8594V28.0908H21.2031V28.9746ZM19.4307 27.2041H28.2881V20.1191H19.4307V27.2041ZM29.1777 27.2021H30.0605V19.2334H29.1777V27.2021ZM27.4053 26.3213H20.3193V21.0078H27.4053V26.3213ZM22.0918 25.4365H25.6318V24.5469H22.0918V25.4365ZM25.6318 24.5459H26.5156V23.6631H25.6318V24.5459ZM21.2031 24.5459H22.0928V23.6631H21.2031V24.5459ZM16.7734 23.6631H15.8906V19.2344H16.7734V23.6631ZM24.748 22.7744H25.6318V21.8906H24.748V22.7744ZM22.0918 22.7744H22.9756V21.8906H22.0918V22.7744ZM17.6631 19.2344H16.7734V18.3506H17.6631V19.2344ZM18.5469 18.3506H17.6631V17.4609H18.5469V18.3506ZM30.9443 17.4609H30.0615V15.6885H30.9443V17.4609ZM29.1777 17.4609H28.2881V15.6885H29.1777V17.4609ZM27.4053 17.4609H20.3193V15.6885H27.4053V17.4609ZM19.4297 17.4609H18.5469V16.5781H19.4297V17.4609Z" fill="#EAEAEA"/>
<rect width="6" height="2" transform="matrix(-1 0 0 1 10 12)" fill="#9D9D9D"/>
<rect width="4" height="2" transform="matrix(-1 0 0 1 8 14)" fill="#9D9D9D"/>
<rect width="6" height="2" transform="matrix(-1 0 0 1 8 16)" fill="#9D9D9D"/>
<rect width="4" height="2" transform="matrix(-1 0 0 1 6 18)" fill="#9D9D9D"/>
<rect width="4" height="2" transform="matrix(-1 0 0 1 6 20)" fill="#9D9D9D"/>
<rect width="4" height="2" transform="matrix(-1 0 0 1 6 22)" fill="#9D9D9D"/>
<rect width="4" height="2" transform="matrix(-1 0 0 1 6 24)" fill="#9D9D9D"/>
<rect width="4" height="2" transform="matrix(-1 0 0 1 6 26)" fill="#9D9D9D"/>
<rect width="4" height="2" transform="matrix(-1 0 0 1 6 28)" fill="#9D9D9D"/>
<rect width="6" height="2" transform="matrix(-1 0 0 1 8 30)" fill="#9D9D9D"/>
<rect width="4" height="2" transform="matrix(-1 0 0 1 8 32)" fill="#9D9D9D"/>
<rect width="6" height="2" transform="matrix(-1 0 0 1 10 34)" fill="#9D9D9D"/>
<rect width="6" height="2" transform="matrix(-1 0 0 1 12 36)" fill="#9D9D9D"/>
<rect width="6" height="2" transform="matrix(-1 0 0 1 14 38)" fill="#9D9D9D"/>
<rect width="8" height="2" transform="matrix(-1 0 0 1 18 40)" fill="#9D9D9D"/>
<rect width="8" height="2" transform="matrix(-1 0 0 1 38 40)" fill="#9D9D9D"/>
<rect width="2" height="2" transform="matrix(-1 0 0 1 36 38)" fill="#9D9D9D"/>
<rect width="24" height="2" transform="matrix(-1 0 0 1 36 42)" fill="#9D9D9D"/>
</g>
<defs>
<clipPath id="clip0_12361_59889">
<rect width="48" height="48" fill="white"/>
</clipPath>
</defs>
</svg>
