<svg width="20" height="22" viewBox="0 0 20 22" fill="none" xmlns="http://www.w3.org/2000/svg">
<path d="M15.3534 3.21161C13.8517 2.17346 11.8934 1.46875 9.75338 1.46875C4.74918 1.46875 0.924805 4.13012 0.924805 9.66875C0.924805 15.2074 5.43909 21.4688 10.5248 21.4688C11.6983 21.4688 12.5188 21.2746 13.2701 20.9018M17.2962 5.18304C17.5929 5.68388 17.874 6.26333 18.0953 6.88928" stroke="url(#paint0_linear_12361_59007)" stroke-linecap="round" stroke-linejoin="round"/>
<path d="M15.3534 3.21161C13.8517 2.17346 11.8934 1.46875 9.75338 1.46875C4.74918 1.46875 0.924805 4.13012 0.924805 9.66875C0.924805 15.2074 5.43909 21.4688 10.5248 21.4688C11.6983 21.4688 12.5188 21.2746 13.2701 20.9018M17.2962 5.18304C17.5929 5.68388 17.874 6.26333 18.0953 6.88928" stroke="white" stroke-opacity="0.2" stroke-linecap="round" stroke-linejoin="round"/>
<path fill-rule="evenodd" clip-rule="evenodd" d="M12.75 11.3229C12.75 9.34044 14.1822 7.64062 16.0519 7.64062C17.9215 7.64062 19.3537 9.34044 19.3537 11.3229C19.3537 11.9819 19.1358 12.5559 18.9822 12.9605C18.977 12.9743 18.9718 12.988 18.9667 13.0014C18.7922 13.4618 18.7009 13.7293 18.7009 13.9978C18.7009 14.2662 18.7922 14.5337 18.9667 14.9942C18.9718 15.0076 18.977 15.0212 18.9822 15.035C19.1358 15.4397 19.3537 16.0136 19.3537 16.6726C19.3537 18.6551 17.9215 20.3549 16.0519 20.3549C14.1822 20.3549 12.75 18.6551 12.75 16.6726C12.75 16.0136 12.9679 15.4397 13.1215 15.035C13.1268 15.0212 13.1319 15.0076 13.137 14.9942C13.3115 14.5337 13.4028 14.2662 13.4028 13.9978C13.4028 13.7293 13.3115 13.4618 13.137 13.0014C13.1319 12.988 13.1268 12.9743 13.1215 12.9605C12.9679 12.5559 12.75 11.9819 12.75 11.3229ZM16.0519 9.38498C15.1242 9.38498 14.35 10.2389 14.35 11.3229C14.35 11.6041 14.4434 11.8803 14.6158 12.3353C14.6222 12.3523 14.6288 12.3696 14.6355 12.3873C14.7872 12.7863 15.0028 13.3534 15.0028 13.9978C15.0028 14.6421 14.7872 15.2092 14.6355 15.6082C14.6288 15.6259 14.6222 15.6432 14.6158 15.6602C14.4434 16.1152 14.35 16.3915 14.35 16.6726C14.35 17.7566 15.1242 18.6106 16.0519 18.6106C16.9795 18.6106 17.7537 17.7566 17.7537 16.6726C17.7537 16.3915 17.6603 16.1152 17.4879 15.6602C17.4815 15.6432 17.4749 15.6259 17.4682 15.6082C17.3165 15.2092 17.1009 14.6421 17.1009 13.9978C17.1009 13.3534 17.3165 12.7863 17.4682 12.3873C17.4749 12.3697 17.4815 12.3523 17.4879 12.3353C17.6603 11.8803 17.7537 11.6041 17.7537 11.3229C17.7537 10.2389 16.9795 9.38498 16.0519 9.38498Z" stroke="url(#paint1_linear_12361_59007)" stroke-linecap="round" stroke-linejoin="round"/>
<path fill-rule="evenodd" clip-rule="evenodd" d="M12.75 11.3229C12.75 9.34044 14.1822 7.64062 16.0519 7.64062C17.9215 7.64062 19.3537 9.34044 19.3537 11.3229C19.3537 11.9819 19.1358 12.5559 18.9822 12.9605C18.977 12.9743 18.9718 12.988 18.9667 13.0014C18.7922 13.4618 18.7009 13.7293 18.7009 13.9978C18.7009 14.2662 18.7922 14.5337 18.9667 14.9942C18.9718 15.0076 18.977 15.0212 18.9822 15.035C19.1358 15.4397 19.3537 16.0136 19.3537 16.6726C19.3537 18.6551 17.9215 20.3549 16.0519 20.3549C14.1822 20.3549 12.75 18.6551 12.75 16.6726C12.75 16.0136 12.9679 15.4397 13.1215 15.035C13.1268 15.0212 13.1319 15.0076 13.137 14.9942C13.3115 14.5337 13.4028 14.2662 13.4028 13.9978C13.4028 13.7293 13.3115 13.4618 13.137 13.0014C13.1319 12.988 13.1268 12.9743 13.1215 12.9605C12.9679 12.5559 12.75 11.9819 12.75 11.3229ZM16.0519 9.38498C15.1242 9.38498 14.35 10.2389 14.35 11.3229C14.35 11.6041 14.4434 11.8803 14.6158 12.3353C14.6222 12.3523 14.6288 12.3696 14.6355 12.3873C14.7872 12.7863 15.0028 13.3534 15.0028 13.9978C15.0028 14.6421 14.7872 15.2092 14.6355 15.6082C14.6288 15.6259 14.6222 15.6432 14.6158 15.6602C14.4434 16.1152 14.35 16.3915 14.35 16.6726C14.35 17.7566 15.1242 18.6106 16.0519 18.6106C16.9795 18.6106 17.7537 17.7566 17.7537 16.6726C17.7537 16.3915 17.6603 16.1152 17.4879 15.6602C17.4815 15.6432 17.4749 15.6259 17.4682 15.6082C17.3165 15.2092 17.1009 14.6421 17.1009 13.9978C17.1009 13.3534 17.3165 12.7863 17.4682 12.3873C17.4749 12.3697 17.4815 12.3523 17.4879 12.3353C17.6603 11.8803 17.7537 11.6041 17.7537 11.3229C17.7537 10.2389 16.9795 9.38498 16.0519 9.38498Z" stroke="white" stroke-opacity="0.2" stroke-linecap="round" stroke-linejoin="round"/>
<circle cx="6.87416" cy="6.85561" r="2.26967" stroke="url(#paint2_linear_12361_59007)" stroke-linecap="round" stroke-linejoin="round"/>
<circle cx="6.87416" cy="6.85561" r="2.26967" stroke="white" stroke-opacity="0.2" stroke-linecap="round" stroke-linejoin="round"/>
<circle cx="15.0314" cy="5.47279" r="2.26967" stroke="url(#paint3_linear_12361_59007)" stroke-linecap="round" stroke-linejoin="round"/>
<circle cx="15.0314" cy="5.47279" r="2.26967" stroke="white" stroke-opacity="0.2" stroke-linecap="round" stroke-linejoin="round"/>
<path d="M3.27948 5.41542C3.66755 4.42175 5.92029 3.34112 7.10995 3.62196" stroke="url(#paint4_linear_12361_59007)" stroke-linecap="round" stroke-linejoin="round"/>
<path d="M3.27948 5.41542C3.66755 4.42175 5.92029 3.34112 7.10995 3.62196" stroke="white" stroke-opacity="0.2" stroke-linecap="round" stroke-linejoin="round"/>
<path d="M17.3141 2.77051C15.7472 1.61817 13.8734 1.87159 12.707 2.23744" stroke="url(#paint5_linear_12361_59007)" stroke-linecap="round" stroke-linejoin="round"/>
<path d="M17.3141 2.77051C15.7472 1.61817 13.8734 1.87159 12.707 2.23744" stroke="white" stroke-opacity="0.2" stroke-linecap="round" stroke-linejoin="round"/>
<path d="M13.519 8.99219C12.7762 9.73504 11.4958 10.5558 8.63867 10.5558" stroke="url(#paint6_linear_12361_59007)" stroke-linecap="round" stroke-linejoin="round"/>
<path d="M13.519 8.99219C12.7762 9.73504 11.4958 10.5558 8.63867 10.5558" stroke="white" stroke-opacity="0.2" stroke-linecap="round" stroke-linejoin="round"/>
<path d="M13.4761 19.0078C12.7332 18.265 11.4958 17.4167 8.63867 17.4167" stroke="url(#paint7_linear_12361_59007)" stroke-linecap="round" stroke-linejoin="round"/>
<path d="M13.4761 19.0078C12.7332 18.265 11.4958 17.4167 8.63867 17.4167" stroke="white" stroke-opacity="0.2" stroke-linecap="round" stroke-linejoin="round"/>
<path d="M15.4434 3.99219C15.6921 3.99236 15.8945 4.19455 15.8945 4.44336C15.8945 4.69219 15.6921 4.89435 15.4434 4.89453C15.1944 4.89453 14.9922 4.69229 14.9922 4.44336C14.9922 4.19445 15.1944 3.99219 15.4434 3.99219Z" fill="black"/>
<path d="M15.4434 3.99219L15.4437 3.49219H15.4434L15.4434 3.99219ZM15.8945 4.44336H16.3945V4.44331L15.8945 4.44336ZM15.4434 4.89453L15.4434 5.39453L15.4437 5.39453L15.4434 4.89453ZM14.9922 4.44336L14.4922 4.44331V4.44336H14.9922ZM15.4434 3.99219L15.443 4.49219C15.4162 4.49217 15.3945 4.47101 15.3945 4.44341L15.8945 4.44336L16.3945 4.44331C16.3945 3.9181 15.968 3.49256 15.4437 3.49219L15.4434 3.99219ZM15.8945 4.44336H15.3945C15.3945 4.41569 15.4163 4.39455 15.443 4.39453L15.4434 4.89453L15.4437 5.39453C15.968 5.39416 16.3945 4.96868 16.3945 4.44336H15.8945ZM15.4434 4.89453L15.4434 4.39453C15.4706 4.39453 15.4922 4.41614 15.4922 4.44336H14.9922H14.4922C14.4922 4.96844 14.9183 5.39452 15.4434 5.39453L15.4434 4.89453ZM14.9922 4.44336L15.4922 4.44341C15.4922 4.47056 15.4706 4.49219 15.4434 4.49219L15.4434 3.99219L15.4434 3.49219C14.9183 3.49219 14.4922 3.91834 14.4922 4.44331L14.9922 4.44336Z" fill="url(#paint8_linear_12361_59007)"/>
<path d="M15.4434 3.99219L15.4437 3.49219H15.4434L15.4434 3.99219ZM15.8945 4.44336H16.3945V4.44331L15.8945 4.44336ZM15.4434 4.89453L15.4434 5.39453L15.4437 5.39453L15.4434 4.89453ZM14.9922 4.44336L14.4922 4.44331V4.44336H14.9922ZM15.4434 3.99219L15.443 4.49219C15.4162 4.49217 15.3945 4.47101 15.3945 4.44341L15.8945 4.44336L16.3945 4.44331C16.3945 3.9181 15.968 3.49256 15.4437 3.49219L15.4434 3.99219ZM15.8945 4.44336H15.3945C15.3945 4.41569 15.4163 4.39455 15.443 4.39453L15.4434 4.89453L15.4437 5.39453C15.968 5.39416 16.3945 4.96868 16.3945 4.44336H15.8945ZM15.4434 4.89453L15.4434 4.39453C15.4706 4.39453 15.4922 4.41614 15.4922 4.44336H14.9922H14.4922C14.4922 4.96844 14.9183 5.39452 15.4434 5.39453L15.4434 4.89453ZM14.9922 4.44336L15.4922 4.44341C15.4922 4.47056 15.4706 4.49219 15.4434 4.49219L15.4434 3.99219L15.4434 3.49219C14.9183 3.49219 14.4922 3.91834 14.4922 4.44331L14.9922 4.44336Z" fill="white" fill-opacity="0.2"/>
<path d="M6.3584 7.1875C6.60722 7.1875 6.80938 7.3899 6.80957 7.63867C6.80957 7.88761 6.60733 8.08984 6.3584 8.08984C6.1095 8.08979 5.90723 7.88758 5.90723 7.63867C5.90742 7.38993 6.10962 7.18755 6.3584 7.1875Z" fill="black"/>
<path d="M6.3584 7.1875V6.6875H6.3583L6.3584 7.1875ZM6.80957 7.63867H7.30957L7.30957 7.63829L6.80957 7.63867ZM6.3584 8.08984L6.3583 8.58984H6.3584V8.08984ZM5.90723 7.63867L5.40723 7.63829V7.63867H5.90723ZM6.3584 7.1875V7.6875C6.33069 7.6875 6.30959 7.66574 6.30957 7.63906L6.80957 7.63867L7.30957 7.63829C7.30917 7.11405 6.88374 6.6875 6.3584 6.6875V7.1875ZM6.80957 7.63867H6.30957C6.30957 7.61147 6.33119 7.58984 6.3584 7.58984V8.08984V8.58984C6.88348 8.58984 7.30957 8.16375 7.30957 7.63867H6.80957ZM6.3584 8.08984L6.3585 7.58984C6.38557 7.58985 6.40723 7.61134 6.40723 7.63867H5.90723H5.40723C5.40723 8.16382 5.83344 8.58974 6.3583 8.58984L6.3584 8.08984ZM5.90723 7.63867L6.40723 7.63906C6.40721 7.66587 6.38607 7.68749 6.3585 7.6875L6.3584 7.1875L6.3583 6.6875C5.83317 6.6876 5.40763 7.11399 5.40723 7.63829L5.90723 7.63867Z" fill="url(#paint9_linear_12361_59007)"/>
<path d="M6.3584 7.1875V6.6875H6.3583L6.3584 7.1875ZM6.80957 7.63867H7.30957L7.30957 7.63829L6.80957 7.63867ZM6.3584 8.08984L6.3583 8.58984H6.3584V8.08984ZM5.90723 7.63867L5.40723 7.63829V7.63867H5.90723ZM6.3584 7.1875V7.6875C6.33069 7.6875 6.30959 7.66574 6.30957 7.63906L6.80957 7.63867L7.30957 7.63829C7.30917 7.11405 6.88374 6.6875 6.3584 6.6875V7.1875ZM6.80957 7.63867H6.30957C6.30957 7.61147 6.33119 7.58984 6.3584 7.58984V8.08984V8.58984C6.88348 8.58984 7.30957 8.16375 7.30957 7.63867H6.80957ZM6.3584 8.08984L6.3585 7.58984C6.38557 7.58985 6.40723 7.61134 6.40723 7.63867H5.90723H5.40723C5.40723 8.16382 5.83344 8.58974 6.3583 8.58984L6.3584 8.08984ZM5.90723 7.63867L6.40723 7.63906C6.40721 7.66587 6.38607 7.68749 6.3585 7.6875L6.3584 7.1875L6.3583 6.6875C5.83317 6.6876 5.40763 7.11399 5.40723 7.63829L5.90723 7.63867Z" fill="white" fill-opacity="0.2"/>
<defs>
<linearGradient id="paint0_linear_12361_59007" x1="2.37388" y1="21.9458" x2="20.6651" y2="6.11242" gradientUnits="userSpaceOnUse">
<stop offset="0.08" stop-color="#9945FF"/>
<stop offset="0.528846" stop-color="#28E028"/>
<stop offset="0.97" stop-color="#FFB825"/>
</linearGradient>
<linearGradient id="paint1_linear_12361_59007" x1="13.3073" y1="20.6582" x2="22.9647" y2="15.6007" gradientUnits="userSpaceOnUse">
<stop offset="0.08" stop-color="#9945FF"/>
<stop offset="0.528846" stop-color="#28E028"/>
<stop offset="0.97" stop-color="#FFB825"/>
</linearGradient>
<linearGradient id="paint2_linear_12361_59007" x1="4.98758" y1="9.23356" x2="9.18224" y2="5.00419" gradientUnits="userSpaceOnUse">
<stop offset="0.08" stop-color="#9945FF"/>
<stop offset="0.528846" stop-color="#28E028"/>
<stop offset="0.97" stop-color="#FFB825"/>
</linearGradient>
<linearGradient id="paint3_linear_12361_59007" x1="13.1448" y1="7.85075" x2="17.3395" y2="3.62138" gradientUnits="userSpaceOnUse">
<stop offset="0.08" stop-color="#9945FF"/>
<stop offset="0.528846" stop-color="#28E028"/>
<stop offset="0.97" stop-color="#FFB825"/>
</linearGradient>
<linearGradient id="paint4_linear_12361_59007" x1="4.28916" y1="6.06877" x2="3.39736" y2="3.96255" gradientUnits="userSpaceOnUse">
<stop offset="0.08" stop-color="#9945FF"/>
<stop offset="0.528846" stop-color="#28E028"/>
<stop offset="0.97" stop-color="#FFB825"/>
</linearGradient>
<linearGradient id="paint5_linear_12361_59007" x1="13.0958" y1="2.79057" x2="13.3682" y2="1.28586" gradientUnits="userSpaceOnUse">
<stop offset="0.08" stop-color="#9945FF"/>
<stop offset="0.528846" stop-color="#28E028"/>
<stop offset="0.97" stop-color="#FFB825"/>
</linearGradient>
<linearGradient id="paint6_linear_12361_59007" x1="9.05054" y1="10.5931" x2="9.88461" y2="7.96827" gradientUnits="userSpaceOnUse">
<stop offset="0.08" stop-color="#9945FF"/>
<stop offset="0.528846" stop-color="#28E028"/>
<stop offset="0.97" stop-color="#FFB825"/>
</linearGradient>
<linearGradient id="paint7_linear_12361_59007" x1="9.04691" y1="17.3787" x2="9.91398" y2="20.0366" gradientUnits="userSpaceOnUse">
<stop offset="0.08" stop-color="#9945FF"/>
<stop offset="0.528846" stop-color="#28E028"/>
<stop offset="0.97" stop-color="#FFB825"/>
</linearGradient>
<linearGradient id="paint8_linear_12361_59007" x1="15.0683" y1="4.91606" x2="15.9022" y2="4.07533" gradientUnits="userSpaceOnUse">
<stop offset="0.08" stop-color="#9945FF"/>
<stop offset="0.528846" stop-color="#28E028"/>
<stop offset="0.97" stop-color="#FFB825"/>
</linearGradient>
<linearGradient id="paint9_linear_12361_59007" x1="5.98338" y1="8.11137" x2="6.8172" y2="7.27064" gradientUnits="userSpaceOnUse">
<stop offset="0.08" stop-color="#9945FF"/>
<stop offset="0.528846" stop-color="#28E028"/>
<stop offset="0.97" stop-color="#FFB825"/>
</linearGradient>
</defs>
</svg>
