<svg xmlns="http://www.w3.org/2000/svg" width="24" height="24" viewBox="0 0 24 24" fill="none">
  <g clip-path="url(#clip0_9372_1705)">
    <path d="M22.8525 21.7109H24V22.8584H22.8525V21.7109Z" fill="white"/>
    <path d="M22.8523 1.14062H21.7123V2.28812H20.5723V3.42812H21.7123V4.57562H22.8523V3.42812H23.9998V2.28812H22.8523V1.14062Z" fill="white"/>
    <path d="M21.7124 17.1484H22.8524V18.2884H21.7124V17.1484Z" fill="white"/>
    <path d="M20.5723 18.2812H21.7123V19.4288H20.5723V18.2812Z" fill="white"/>
    <path d="M20.5723 16H21.7123V17.1475H20.5723V16Z" fill="white"/>
    <path d="M20.5723 11.4297H21.7123V12.5697H20.5723V11.4297Z" fill="white"/>
    <path d="M20.5723 6.85156H21.7123V7.99906H20.5723V6.85156Z" fill="white"/>
    <path d="M19.4248 17.1484H20.5723V18.2884H19.4248V17.1484Z" fill="white"/>
    <path d="M19.4248 12.5703H20.5723V13.7178H19.4248V12.5703Z" fill="white"/>
    <path d="M19.4248 5.71875H20.5723V6.85875H19.4248V5.71875Z" fill="white"/>
    <path d="M18.2852 13.7188H19.4252V14.8588H18.2852V13.7188Z" fill="white"/>
    <path d="M18.2852 4.57812H19.4252V5.71813H18.2852V4.57812Z" fill="white"/>
    <path d="M18.2851 23.9978V22.8578H19.4251V21.7103H18.2851V20.5703H17.1376V21.7103H15.9976V22.8578H17.1376V23.9978H18.2851Z" fill="white"/>
    <path d="M17.1377 14.8594H18.2852V15.9994H17.1377V14.8594Z" fill="white"/>
    <path d="M15.9976 16H17.1376V17.1475H15.9976V16Z" fill="white"/>
    <path d="M15.9976 11.4297H17.1376V12.5697H15.9976V11.4297Z" fill="white"/>
    <path d="M15.9976 6.85156H17.1376V7.99906H15.9976V6.85156Z" fill="white"/>
    <path d="M15.9976 1.14062H17.1376V2.28812H15.9976V1.14062Z" fill="white"/>
    <path d="M14.8574 17.1484H15.9974V18.2884H14.8574V17.1484Z" fill="white"/>
    <path d="M14.8574 12.5703H15.9974V14.8578H14.8574V12.5703Z" fill="white"/>
    <path d="M14.8574 5.71875H15.9974V6.85875H14.8574V5.71875Z" fill="white"/>
    <path d="M13.71 14.8594H14.8575V17.1469H13.71V14.8594Z" fill="white"/>
    <path d="M13.7098 17.1484H12.5698V20.5759H13.7098V19.4359H14.8573V18.2884H13.7098V17.1484Z" fill="white"/>
    <path d="M12.5698 0H13.7098V1.14H12.5698V0Z" fill="white"/>
    <path d="M10.2822 20.5703H12.5697V21.7103H10.2822V20.5703Z" fill="white"/>
    <path d="M10.2826 17.1484H9.14262V18.2884H7.99512V19.4359H9.14262V20.5759H10.2826V17.1484Z" fill="white"/>
    <path d="M7.99512 14.8594H9.14262V17.1469H7.99512V14.8594Z" fill="white"/>
    <path d="M6.85498 17.1484H7.99498V18.2884H6.85498V17.1484Z" fill="white"/>
    <path d="M6.85498 12.5703H7.99498V14.8578H6.85498V12.5703Z" fill="white"/>
    <path d="M6.85498 5.71875H7.99498V6.85875H6.85498V5.71875Z" fill="white"/>
    <path d="M6.85498 1.14062H7.99498V2.28812H6.85498V1.14062Z" fill="white"/>
    <path d="M5.71484 20.5703H6.85484V21.7103H5.71484V20.5703Z" fill="white"/>
    <path d="M5.71484 16H6.85484V17.1475H5.71484V16Z" fill="white"/>
    <path d="M5.71484 11.4297H6.85484V12.5697H5.71484V11.4297Z" fill="white"/>
    <path d="M5.71484 6.85156H6.85484V7.99906H5.71484V6.85156Z" fill="white"/>
    <path d="M7.99488 4.57719V5.71719H9.14238V4.57719H13.7099V5.71719H14.8574V4.57719H18.2849V3.42969H4.56738V4.57719H7.99488Z" fill="white"/>
    <path d="M4.56738 14.8594H5.71488V15.9994H4.56738V14.8594Z" fill="white"/>
    <path d="M3.42773 13.7188H4.56773V14.8588H3.42773V13.7188Z" fill="white"/>
    <path d="M3.42773 4.57812H4.56773V5.71813H3.42773V4.57812Z" fill="white"/>
    <path d="M2.28027 18.2812H3.42777V19.4288H2.28027V18.2812Z" fill="white"/>
    <path d="M2.28027 12.5703H3.42777V13.7178H2.28027V12.5703Z" fill="white"/>
    <path d="M2.28027 5.71875H3.42777V6.85875H2.28027V5.71875Z" fill="white"/>
    <path d="M1.14014 22.8594H2.28014V23.9994H1.14014V22.8594Z" fill="white"/>
    <path d="M1.14014 19.4297H2.28014V20.5697H1.14014V19.4297Z" fill="white"/>
    <path d="M1.14014 17.1484H2.28014V18.2884H1.14014V17.1484Z" fill="white"/>
    <path d="M1.14014 11.4297H2.28014V12.5697H1.14014V11.4297Z" fill="white"/>
    <path d="M1.14 10.28H4.5675V11.4275H5.715V10.28H17.1375V11.4275H18.285V10.28H21.7125V11.4275H22.8525V8H21.7125V9.14H18.285V8H17.1375V9.14H5.715V8H4.5675V9.14H1.14V8H0V11.4275H1.14V10.28Z" fill="white"/>
    <path d="M1.14014 6.85156H2.28014V7.99906H1.14014V6.85156Z" fill="white"/>
    <path d="M1.14 3.4275H2.28V2.2875H3.4275V1.14H2.28V0H1.14V1.14H0V2.2875H1.14V3.4275Z" fill="white"/>
    <path d="M0 18.2812H1.14V19.4288H0V18.2812Z" fill="white"/>
  </g>
  <defs>
    <clipPath id="clip0_9372_1705">
      <rect width="24" height="24" fill="white"/>
    </clipPath>
  </defs>
</svg>