<svg xmlns="http://www.w3.org/2000/svg" viewBox="-0.5 -0.5 24 24" id="Logo-Discord--Streamline-Pixel.svg" height="24" width="24"><desc>Logo Discord Streamline Icon: https://streamlinehq.com</desc><title>logo-discord</title><g><path d="M21.9003125 6.569375000000001h-1.0925V4.3771875h-1.0996875V3.2846875000000004H18.615624999999998V2.1921874999999997h-2.1921874999999997V1.0925h-2.185V0h-5.476875v1.0925H6.569375000000001v1.0996875H4.3771875v1.0925H3.2846875000000004v1.0925H2.185v2.1921874999999997H1.0925v2.1921874999999997H0v5.476875h1.0925v2.1921874999999997h1.0925v2.185h1.0996875v1.0996875h1.0925v1.0925h2.1921874999999997v1.0996875h2.1921874999999997V23h5.476875v-1.0925h2.185v-1.0996875h2.1921874999999997v-1.0925h1.0925V18.615624999999998h1.0996875v-2.185h1.0925v-2.1921874999999997H23v-5.476875h-1.0996875Zm-1.0925 8.7615625h-1.0996875v1.0996875H18.615624999999998v1.0925h-1.0925v1.0925h-4.3843749999999995v-1.0925h3.2846875000000004v-2.1921874999999997H6.569375000000001v2.1921874999999997h3.2846875000000004v1.0925h-4.3843749999999995v-1.0925H4.3771875v-1.0925H3.2846875000000004v-1.0996875H2.185v-5.476875h1.0996875v-2.185h1.0925V6.569375000000001h1.0925V5.476875h4.3843749999999995v1.0925h3.2846875000000004V5.476875h4.3843749999999995v1.0925h1.0925v1.0996875h1.0925v2.185h1.0996875Z" fill="#fff" stroke-width="1"></path><path d="M13.138750000000002 9.854062500000001h2.1921874999999997v2.1921874999999997h-2.1921874999999997Z" fill="#fff" stroke-width="1"></path><path d="M7.661875 9.854062500000001h2.1921874999999997v2.1921874999999997h-2.1921874999999997Z" fill="#fff" stroke-width="1"></path></g></svg>