<svg width="28" height="28" viewBox="0 0 28 28" fill="none" xmlns="http://www.w3.org/2000/svg">
<g clip-path="url(#clip0_7283_126478)">
<path d="M26.1421 8.24761H24.8592V5.69006H23.5846V4.41548H22.3016V3.1409H19.7524V1.85793H17.1949V0.583344H10.8052V1.85793H8.24765V3.1409H5.69009V4.41548H4.41551V5.69006H3.14093V8.24761H1.85796V10.8052H0.583374V17.1949H1.85796V19.7524H3.14093V22.3016H4.41551V23.5845H5.69009V24.8591H8.24765V26.1421H10.8052V27.4167H17.1949V26.1421H19.7524V24.8591H22.3016V23.5845H23.5846V22.3016H24.8592V19.7524H26.1421V17.1949H27.4167V10.8052H26.1421V8.24761ZM10.8052 5.69006H12.0798V4.41548H15.9203V5.69006H17.1949V9.53058H15.9203V10.8052H12.0798V9.53058H10.8052V5.69006ZM19.7524 22.3016H18.4695V23.5845H12.0798V22.3016H10.8052V13.3627H12.0798V12.0798H15.9203V13.3627H17.1949V19.7524H18.4695V21.027H19.7524V22.3016Z" fill="white"/>
</g>
<defs>
<clipPath id="clip0_7283_126478">
<rect width="28" height="28" fill="white"/>
</clipPath>
</defs>
</svg>
