<svg width="48" height="48" viewBox="0 0 48 48" fill="none" xmlns="http://www.w3.org/2000/svg">
<g id="Business-Products-Magic-Rabbit--Streamline-Pixel.svg" clip-path="url(#clip0_9353_140597)">
<g id="Group">
<path id="Vector" d="M45.7141 18.2859H43.4341V22.8609H41.1391V20.5809H38.8591V18.2859H43.4341V16.0059H38.8591V13.7109H36.5791V22.8609H34.2841V25.1409H13.7191V22.8609H11.4241V13.7109H9.15156V16.0059H4.56906V18.2859H9.15156V20.5809H6.86406V22.8609H4.56906V18.2859H2.28906V25.1409H4.56906V27.4359H9.15156V43.4259H11.4316V45.7209H13.7266V48.0009H34.2916V45.7209H36.5866V43.4259H38.8666V27.4359H43.4416V25.1409H45.7216L45.7141 18.2859ZM36.5791 32.0109H11.4241V29.7159H36.5791V32.0109Z" fill="white"/>
<path id="Vector_2" d="M34.2812 11.4297H36.5762V13.7097H34.2812V11.4297Z" fill="white"/>
<path id="Vector_3" d="M34.2812 2.29688H36.5762V6.85687H34.2812V2.29688Z" fill="white"/>
<path id="Vector_4" d="M32.0078 6.85547H34.2878V11.4305H32.0078V6.85547Z" fill="white"/>
<path id="Vector_5" d="M29.7109 0H34.2859V2.295H29.7109V0Z" fill="white"/>
<path id="Vector_6" d="M29.7109 16.0078H32.0059V18.2878H29.7109V16.0078Z" fill="white"/>
<path id="Vector_7" d="M27.4297 2.29688H29.7097V6.85687H27.4297V2.29688Z" fill="white"/>
<path id="Vector_8" d="M25.1484 6.85547H27.4284V9.15047H25.1484V6.85547Z" fill="white"/>
<path id="Vector_9" d="M22.8503 22.8602H25.1453V20.5802H27.4253V18.2852H20.5703V20.5802H22.8503V22.8602Z" fill="white"/>
<path id="Vector_10" d="M22.8516 9.14844H25.1466V11.4284H22.8516V9.14844Z" fill="white"/>
<path id="Vector_11" d="M20.5703 6.85547H22.8503V9.15047H20.5703V6.85547Z" fill="white"/>
<path id="Vector_12" d="M18.2812 2.29688H20.5763V6.85687H18.2812V2.29688Z" fill="white"/>
<path id="Vector_13" d="M16 16.0078H18.28V18.2878H16V16.0078Z" fill="white"/>
<path id="Vector_14" d="M13.7188 0H18.2788V2.295H13.7188V0Z" fill="white"/>
<path id="Vector_15" d="M13.7188 6.85547H15.9988V11.4305H13.7188V6.85547Z" fill="white"/>
<path id="Vector_16" d="M11.4219 11.4297H13.7169V13.7097H11.4219V11.4297Z" fill="white"/>
<path id="Vector_17" d="M11.4219 2.29688H13.7169V6.85687H11.4219V2.29688Z" fill="white"/>
</g>
</g>
<defs>
<clipPath id="clip0_9353_140597">
<rect width="48" height="48" fill="white"/>
</clipPath>
</defs>
</svg>
