<svg width="24" height="24" viewBox="0 0 24 24" fill="none" xmlns="http://www.w3.org/2000/svg">
<g clip-path="url(#clip0_12868_36474)">
<path d="M22.8604 2.28906H24.0004V21.7141H22.8604V2.28906Z" fill="white"/>
<path d="M21.7197 21.7109H22.8597V22.8509H21.7197V21.7109Z" fill="white"/>
<path d="M20.5723 14.8594H21.7198V17.1394H20.5723V14.8594Z" fill="white"/>
<path d="M2.28711 22.8516H21.7196V23.9991H2.28711V22.8516Z" fill="white"/>
<path d="M19.4326 17.1406H20.5726V18.2881H19.4326V17.1406Z" fill="white"/>
<path d="M19.4326 13.7109H20.5726V14.8584H19.4326V13.7109Z" fill="white"/>
<path d="M18.2852 7.99219H19.4327V13.7072H18.2852V7.99219Z" fill="white"/>
<path d="M17.1445 18.2812H19.432V19.4212H17.1445V18.2812Z" fill="white"/>
<path d="M17.1445 16H18.2845V17.14H17.1445V16Z" fill="white"/>
<path d="M6.8623 19.4219H17.1448V20.5694H6.8623V19.4219Z" fill="white"/>
<path d="M14.8574 3.42969H16.0049V4.56969H14.8574V3.42969Z" fill="white"/>
<path d="M13.7175 18.2869V17.1394H14.8575V15.9994H17.145V14.8594H11.43V15.9994H10.29V18.2869H13.7175Z" fill="white"/>
<path d="M10.29 2.28906H14.8575V3.42906H10.29V2.28906Z" fill="white"/>
<path d="M8.00293 3.42969H10.2904V4.56969H8.00293V3.42969Z" fill="white"/>
<path d="M6.8623 4.57031H8.0023V5.71781H6.8623V4.57031Z" fill="white"/>
<path d="M5.71484 5.71875H6.86234V7.99875H5.71484V5.71875Z" fill="white"/>
<path d="M4.5752 7.99219H5.7152V13.7072H4.5752V7.99219Z" fill="white"/>
<path d="M3.43457 13.7109H4.57457V14.8584H3.43457V13.7109Z" fill="white"/>
<path d="M3.435 21.7125V20.5725H4.575V19.425H5.715V18.285H6.8625V17.1375H8.0025V15.9975H9.1425V14.8575H10.29V13.71H11.43V12.57H12.5775V11.43H13.7175V10.2825H14.8575V9.1425H16.005V7.995H17.145V6.855H18.285V5.715H19.4325V4.5675H20.5725V3.4275H21.72V2.2875H22.86V1.14H21.72V0L2.2875 0V1.14H20.5725V2.2875H19.4325V3.4275H18.285V4.5675H17.145V5.715H16.005V6.855H14.8575V7.995H13.7175V9.1425H12.5775V10.2825H11.43V11.43H10.29V12.57H9.1425V13.71H8.0025V14.8575H6.8625V15.9975H5.715V17.1375H4.575V18.285H3.435V19.425H2.2875V20.5725H1.1475V2.2875H0V21.7125H1.1475V22.8525H2.2875V21.7125H3.435Z" fill="white"/>
<path d="M2.28711 14.8594H3.43461V17.1394H2.28711V14.8594Z" fill="white"/>
<path d="M1.14746 1.14062H2.28746V2.28812H1.14746V1.14062Z" fill="white"/>
</g>
<defs>
<clipPath id="clip0_12868_36474">
<rect width="24" height="24" fill="white"/>
</clipPath>
</defs>
</svg>
