<svg width="20" height="20" viewBox="0 0 20 20" fill="none" xmlns="http://www.w3.org/2000/svg">
<g clip-path="url(#clip0_9794_28863)">
<mask id="mask0_9794_28863" style="mask-type:luminance" maskUnits="userSpaceOnUse" x="0" y="0" width="20" height="20">
<path d="M20 10C20 4.47715 15.5228 0 10 0C4.47715 0 0 4.47715 0 10C0 15.5228 4.47715 20 10 20C15.5228 20 20 15.5228 20 10Z" fill="white"/>
</mask>
<g mask="url(#mask0_9794_28863)">
<path d="M20 0H0V20H20V0Z" fill="#AB9FF2"/>
<path fill-rule="evenodd" clip-rule="evenodd" d="M8.70332 12.7469C7.91804 13.9502 6.60214 15.473 4.85117 15.473C4.02344 15.473 3.22754 15.1322 3.22754 13.652C3.22754 9.88237 8.37434 4.04688 13.1497 4.04688C15.8664 4.04688 16.9489 5.93169 16.9489 8.07209C16.9489 10.8195 15.166 13.9608 13.3938 13.9608C12.8314 13.9608 12.5555 13.652 12.5555 13.1622C12.5555 13.0344 12.5767 12.896 12.6191 12.7469C12.0143 13.7798 10.8469 14.7382 9.7539 14.7382C8.958 14.7382 8.55476 14.2377 8.55476 13.5349C8.55476 13.2793 8.60781 13.0131 8.70332 12.7469ZM12.8169 7.99786C12.8169 8.62156 12.449 8.93339 12.0373 8.93339C11.6194 8.93339 11.2577 8.62156 11.2577 7.99786C11.2577 7.37416 11.6194 7.06231 12.0373 7.06231C12.449 7.06231 12.8169 7.37416 12.8169 7.99786ZM15.1558 7.99788C15.1558 8.62158 14.7878 8.93342 14.3762 8.93342C13.9583 8.93342 13.5966 8.62158 13.5966 7.99788C13.5966 7.37418 13.9583 7.06234 14.3762 7.06234C14.7878 7.06234 15.1558 7.37418 15.1558 7.99788Z" fill="#FFFDF8"/>
</g>
</g>
<defs>
<clipPath id="clip0_9794_28863">
<rect width="20" height="20" fill="white"/>
</clipPath>
</defs>
</svg>
