<svg width="28" height="28" viewBox="0 0 28 28" fill="none" xmlns="http://www.w3.org/2000/svg">
<g id="Food-Drink-Milk--Streamline-Pixel.svg">
<g id="Group">
<path id="Vector" d="M26.0006 9.33188H27.3306V25.3356H26.0006V9.33188Z" fill="black"/>
<path id="Vector_2" d="M24.6619 8.00189H26.0006V9.33189H24.6619V8.00189Z" fill="black"/>
<path id="Vector_3" d="M1.99937 24.0056H15.3344V25.3356H1.99937V26.6656H26.0006V25.3356H16.6644V9.33188H15.3344V10.675H1.99937V9.33625H0.669373V25.34H1.99937V24.0056ZM1.99937 12.0006H7.32812V13.3306H8.6625V14.6694H9.9925V15.9994H11.3312V14.6694H12.6612V15.9994H14V14.6694H15.3387V22.6669H11.34V21.3369H8.6625V18.6681H7.32812V19.9981H5.99812V18.6681H4.66812V17.3381H3.32937V18.6681H1.99937V12.0006Z" fill="black"/>
<path id="Vector_4" d="M23.3318 21.3369H24.6618V22.6669H23.3318V21.3369Z" fill="black"/>
<path id="Vector_5" d="M23.3318 18.6681H24.6618V19.9981H23.3318V18.6681Z" fill="black"/>
<path id="Vector_6" d="M23.3318 6.67188H24.6618V8.00187H23.3318V6.67188Z" fill="black"/>
<path id="Vector_7" d="M18.0031 15.9994H24.6619V17.3381H18.0031V15.9994Z" fill="black"/>
<path id="Vector_8" d="M18.0031 13.3306H24.6619V14.6694H18.0031V13.3306Z" fill="black"/>
<path id="Vector_9" d="M22.0019 5.33313H23.3319V6.67188H22.0019V5.33313Z" fill="black"/>
<path id="Vector_10" d="M18.0031 21.3369H22.0019V22.6669H18.0031V21.3369Z" fill="black"/>
<path id="Vector_11" d="M18.0031 18.6681H22.0019V19.9981H18.0031V18.6681Z" fill="black"/>
<path id="Vector_12" d="M19.3331 5.33313H20.6631V6.67188H19.3331V5.33313Z" fill="black"/>
<path id="Vector_13" d="M18.0031 6.67188H19.3331V8.00187H18.0031V6.67188Z" fill="black"/>
<path id="Vector_14" d="M16.6644 8.00189H18.0031V9.33189H16.6644V8.00189Z" fill="black"/>
<path id="Vector_15" d="M7.32812 5.33313H18.0031V6.67188H7.32812V5.33313Z" fill="black"/>
<path id="Vector_16" d="M7.32811 2.66438H20.6631V5.33313H22.0019V1.33438H5.99811V5.33313H7.32811V2.66438Z" fill="black"/>
<path id="Vector_17" d="M4.66815 5.33313H5.99815V6.67188H4.66815V5.33313Z" fill="black"/>
<path id="Vector_18" d="M3.32935 6.67188H4.6681V8.00187H3.32935V6.67188Z" fill="black"/>
<path id="Vector_19" d="M1.99939 8.00189H3.32939V9.33189H1.99939V8.00189Z" fill="black"/>
</g>
</g>
</svg>
