<svg width="24" height="24" viewBox="0 0 24 24" fill="none" xmlns="http://www.w3.org/2000/svg">
<g clip-path="url(#clip0_12868_14169)">
<path d="M22.8525 19.4219H24V21.7094H22.8525V19.4219Z" fill="#A5FFB8"/>
<path d="M22.8525 2.28906H24V4.57656H22.8525V2.28906Z" fill="#A5FFB8"/>
<path d="M21.7129 21.7109H22.8529V22.8584H21.7129V21.7109Z" fill="#A5FFB8"/>
<path d="M21.7129 1.14062H22.8529V2.28812H21.7129V1.14062Z" fill="#A5FFB8"/>
<path d="M20.5723 19.4219H21.7123V20.5694H20.5723V19.4219Z" fill="#A5FFB8"/>
<path d="M20.5723 14.8594H21.7123V17.1469H20.5723V14.8594Z" fill="#A5FFB8"/>
<path d="M20.5723 3.42969H21.7123V4.57719H20.5723V3.42969Z" fill="#A5FFB8"/>
<path d="M19.4248 0H21.7123V1.14H19.4248V0Z" fill="#A5FFB8"/>
<path d="M19.4248 22.8594H21.7123V23.9994H19.4248V22.8594Z" fill="#A5FFB8"/>
<path d="M19.4248 20.5703H20.5723V21.7103H19.4248V20.5703Z" fill="#A5FFB8"/>
<path d="M19.4248 17.1484H20.5723V18.2884H19.4248V17.1484Z" fill="#A5FFB8"/>
<path d="M19.4248 13.7188H20.5723V14.8588H19.4248V13.7188Z" fill="#A5FFB8"/>
<path d="M19.4248 2.28906H20.5723V3.42906H19.4248V2.28906Z" fill="#A5FFB8"/>
<path d="M17.1377 18.2812H19.4252V19.4212H17.1377V18.2812Z" fill="#A5FFB8"/>
<path d="M18.2852 8H19.4252V13.715H18.2852V8Z" fill="#A5FFB8"/>
<path d="M17.1377 16H18.2852V17.1475H17.1377V16Z" fill="#A5FFB8"/>
<path d="M17.1377 5.71875H18.2852V8.00625H17.1377V5.71875Z" fill="#A5FFB8"/>
<path d="M6.85547 15.9994H9.14297V17.1469H10.283V18.2869H13.7105V17.1469H14.858V15.9994H17.138V14.8594H6.85547V15.9994Z" fill="#A5FFB8"/>
<path d="M15.9971 4.57812H17.1371V5.71813H15.9971V4.57812Z" fill="#A5FFB8"/>
<path d="M6.85547 19.4219H17.138V20.5694H6.85547V19.4219Z" fill="#A5FFB8"/>
<path d="M13.71 3.42969H15.9975V4.57719H13.71V3.42969Z" fill="#A5FFB8"/>
<path d="M10.2822 2.28906H13.7097V3.42906H10.2822V2.28906Z" fill="#A5FFB8"/>
<path d="M7.99512 3.42969H10.2826V4.57719H7.99512V3.42969Z" fill="#A5FFB8"/>
<path d="M6.85547 4.57812H7.99547V5.71813H6.85547V4.57812Z" fill="#A5FFB8"/>
<path d="M4.56738 18.2812H6.85488V19.4212H4.56738V18.2812Z" fill="#A5FFB8"/>
<path d="M5.71484 16H6.85484V17.1475H5.71484V16Z" fill="#A5FFB8"/>
<path d="M5.71484 5.71875H6.85484V8.00625H5.71484V5.71875Z" fill="#A5FFB8"/>
<path d="M4.56738 8H5.71488V13.715H4.56738V8Z" fill="#A5FFB8"/>
<path d="M3.42773 20.5703H4.56773V21.7103H3.42773V20.5703Z" fill="#A5FFB8"/>
<path d="M3.42773 17.1484H4.56773V18.2884H3.42773V17.1484Z" fill="#A5FFB8"/>
<path d="M3.42773 13.7188H4.56773V14.8588H3.42773V13.7188Z" fill="#A5FFB8"/>
<path d="M3.42773 2.28906H4.56773V3.42906H3.42773V2.28906Z" fill="#A5FFB8"/>
<path d="M2.28711 0H4.56711V1.14H2.28711V0Z" fill="#A5FFB8"/>
<path d="M2.28711 22.8594H4.56711V23.9994H2.28711V22.8594Z" fill="#A5FFB8"/>
<path d="M2.28711 19.4219H3.42711V20.5694H2.28711V19.4219Z" fill="#A5FFB8"/>
<path d="M2.28711 14.8594H3.42711V17.1469H2.28711V14.8594Z" fill="#A5FFB8"/>
<path d="M2.28711 3.42969H3.42711V4.57719H2.28711V3.42969Z" fill="#A5FFB8"/>
<path d="M1.13965 21.7109H2.28715V22.8584H1.13965V21.7109Z" fill="#A5FFB8"/>
<path d="M1.13965 1.14062H2.28715V2.28812H1.13965V1.14062Z" fill="#A5FFB8"/>
<path d="M0 19.4219H1.14V21.7094H0V19.4219Z" fill="#A5FFB8"/>
<path d="M0 2.28906H1.14V4.57656H0V2.28906Z" fill="#A5FFB8"/>
</g>
<defs>
<clipPath id="clip0_12868_14169">
<rect width="24" height="24" fill="white"/>
</clipPath>
</defs>
</svg>
