<svg xmlns="http://www.w3.org/2000/svg" width="24" height="24" viewBox="0 0 24 24" fill="none">
  <g clip-path="url(#clip0_9372_1651)">
    <path d="M22.8525 13.7168H24V14.8568H22.8525V13.7168Z" fill="white"/>
    <path d="M21.7124 14.8574H22.8524V15.9974H21.7124V14.8574Z" fill="white"/>
    <path d="M21.7124 12.5703H22.8524V13.7178H21.7124V12.5703Z" fill="white"/>
    <path d="M20.5723 15.998H21.7123V17.1455H20.5723V15.998Z" fill="white"/>
    <path d="M20.5723 11.4297H21.7123V12.5697H20.5723V11.4297Z" fill="white"/>
    <path d="M19.4248 17.1445H20.5723V18.2845H19.4248V17.1445Z" fill="white"/>
    <path d="M19.4248 10.2891H20.5723V11.4291H19.4248V10.2891Z" fill="white"/>
    <path d="M18.2852 18.2852H19.4252V19.4327H18.2852V18.2852Z" fill="white"/>
    <path d="M18.2852 9.14258H19.4252V10.2901H18.2852V9.14258Z" fill="white"/>
    <path d="M17.145 19.4316H18.285V20.5716H17.145V19.4316Z" fill="white"/>
    <path d="M17.145 8.00195H18.285V9.14195H17.145V8.00195Z" fill="white"/>
    <path d="M15.9976 20.5723H17.1451V21.7123H15.9976V20.5723Z" fill="white"/>
    <path d="M15.9976 15.998H17.1451V17.1455H15.9976V15.998Z" fill="white"/>
    <path d="M15.9976 12.5703H17.1451V14.8578H15.9976V12.5703Z" fill="white"/>
    <path d="M15.9976 6.85547H17.1451V8.00297H15.9976V6.85547Z" fill="white"/>
    <path d="M14.8574 21.7129H15.9974V22.8604H14.8574V21.7129Z" fill="white"/>
    <path d="M14.8574 14.8574H15.9974V15.9974H14.8574V14.8574Z" fill="white"/>
    <path d="M13.71 11.4297H15.9975V12.5697H13.71V11.4297Z" fill="white"/>
    <path d="M14.8574 5.71484H15.9974V6.85484H14.8574V5.71484Z" fill="white"/>
    <path d="M13.71 22.8594H14.8575V23.9994H13.71V22.8594Z" fill="white"/>
    <path d="M13.71 13.7168H14.8575V14.8568H13.71V13.7168Z" fill="white"/>
    <path d="M13.71 4.57422H14.8575V5.71422H13.71V4.57422Z" fill="white"/>
    <path d="M12.5698 21.7129H13.7098V22.8604H12.5698V21.7129Z" fill="white"/>
    <path d="M12.5698 15.998H14.8573V17.1455H12.5698V15.998Z" fill="white"/>
    <path d="M12.5698 12.5703H13.7098V13.7178H12.5698V12.5703Z" fill="white"/>
    <path d="M11.4302 9.14258H13.7102V10.2901H11.4302V9.14258Z" fill="white"/>
    <path d="M12.5698 3.42773H13.7098V4.57523H12.5698V3.42773Z" fill="white"/>
    <path d="M11.4302 20.5723H12.5702V21.7123H11.4302V20.5723Z" fill="white"/>
    <path d="M11.4302 11.4297H12.5702V12.5697H11.4302V11.4297Z" fill="white"/>
    <path d="M11.4302 2.28711H12.5702V3.42711H11.4302V2.28711Z" fill="white"/>
    <path d="M10.2827 19.4316H11.4302V20.5716H10.2827V19.4316Z" fill="white"/>
    <path d="M10.2827 13.7168H12.5702V14.8568H10.2827V13.7168Z" fill="white"/>
    <path d="M10.2827 10.2891H11.4302V11.4291H10.2827V10.2891Z" fill="white"/>
    <path d="M9.14258 18.2852H10.2826V19.4327H9.14258V18.2852Z" fill="white"/>
    <path d="M9.14258 11.4297H10.2826V13.7172H9.14258V11.4297Z" fill="white"/>
    <path d="M9.14258 9.14258H10.2826V10.2901H9.14258V9.14258Z" fill="white"/>
    <path d="M7.99512 17.1445H9.14262V18.2845H7.99512V17.1445Z" fill="white"/>
    <path d="M6.85498 15.998H7.99498V17.1455H6.85498V15.998Z" fill="white"/>
    <path d="M6.85523 5.71523H5.71523V6.85523H4.56773V5.71523H3.42773V8.00273H7.99523V3.42773H5.71523V4.57523H6.85523V5.71523Z" fill="white"/>
    <path d="M5.71484 14.8574H6.85484V15.9974H5.71484V14.8574Z" fill="white"/>
    <path d="M4.56738 13.7168H5.71488V14.8568H4.56738V13.7168Z" fill="white"/>
    <path d="M4.56738 4.57422H5.71488V5.71422H4.56738V4.57422Z" fill="white"/>
    <path d="M3.42773 1.14062H11.4302V2.28812H3.42773V1.14062Z" fill="white"/>
    <path d="M3.42773 12.5703H4.56773V13.7178H3.42773V12.5703Z" fill="white"/>
    <path d="M3.42773 3.42773H4.56773V4.57523H3.42773V3.42773Z" fill="white"/>
    <path d="M2.2876 11.4297H3.4276V12.5697H2.2876V11.4297Z" fill="white"/>
    <path d="M2.2876 2.28711H3.4276V3.42711H2.2876V2.28711Z" fill="white"/>
    <path d="M1.14014 3.42773H2.28764V11.4302H1.14014V3.42773Z" fill="white"/>
    <path d="M1.14014 1.14062H2.28764V2.28812H1.14014V1.14062Z" fill="white"/>
    <path d="M0 0H1.14V1.14H0V0Z" fill="white"/>
  </g>
  <defs>
    <clipPath id="clip0_9372_1651">
      <rect width="24" height="24" fill="white"/>
    </clipPath>
  </defs>
</svg>