<svg width="28" height="28" viewBox="0 0 28 28" fill="none" xmlns="http://www.w3.org/2000/svg">
<g opacity="1" clip-path="url(#clip0_7283_126492)">
<path d="M1.85796 19.7524H3.13254V22.3015H4.41551V23.5845H5.69009V24.8591H8.24765V26.1421H10.8052V27.4166H17.1949V26.1421H19.7441V24.8591H22.3016V23.5845H23.5762V22.3015H24.8592V19.7524H26.1337V17.1948H27.4167V10.8051H26.1337V8.24758H24.8592V5.69003H23.5762V4.41545H22.3016V3.14087H19.7441V1.8579H17.1949V0.583313H10.8052V1.8579H8.24765V3.14087H5.69009V4.41545H4.41551V5.69003H3.13254V8.24758H1.85796V10.8051H0.583374V17.1948H1.85796V19.7524ZM6.96468 8.24758H8.24765V9.53055H9.52223V10.8051H10.8052V12.0797H13.3544V8.24758H14.6373V6.973H19.7441V8.24758H21.027V10.8051H23.5762V12.0797H22.3016V13.3627H21.027V17.1948H19.7441V19.7524H18.4695V21.027H17.1949V22.3015H8.24765V21.027H9.52223V19.7524H10.8052V18.4694H12.0798V17.1948H9.52223V15.9202H8.24765V14.6373H6.96468V8.24758Z" fill="#fff"/>
<path d="M17.1948 9.53058H19.744V12.0797H17.1948V9.53058Z" fill="#fff"/>
</g>
<defs>
<clipPath id="clip0_7283_126492">
<rect width="28" height="28" fill="#fff"/>
</clipPath>
</defs>
</svg>
